HIERARCHY
ROOT hip
{
	OFFSET 0.000000 0.000000 0.000000 
	CHANNELS 6 Xposition Yposition Zposition Xrotation Zrotation Yrotation
	JOINT abdomen
	{
		OFFSET 0.000000 3.402643 0.000000 
		CHANNELS 3 Xrotation Zrotation Yrotation
		JOINT chest
		{
			OFFSET 0.000000 8.438565 -0.680529 
			CHANNELS 3 Xrotation Zrotation Yrotation
			JOINT neck
			{
				OFFSET 0.000000 10.207942 -0.272212 
				CHANNELS 3 Xrotation Zrotation Yrotation
				JOINT head
				{
					OFFSET 0.000000 3.130431 0.000000 
					CHANNELS 3 Xrotation Zrotation Yrotation
					End Site
					{
						OFFSET 0.000000 3.130435 0.000000 
					}
				}
			}
			JOINT lCollar
			{
				OFFSET 3.470700 6.669187 -0.816635 
				CHANNELS 3 Yrotation Zrotation Xrotation
				JOINT lShldr
				{
					OFFSET 3.198488 0.000000 0.000000 
					CHANNELS 3 Zrotation Yrotation Xrotation
					JOINT lForeArm
					{
						OFFSET 10.139888 0.000000 0.000000 
						CHANNELS 3 Yrotation Zrotation Xrotation
						JOINT lHand
						{
							OFFSET 8.370511 0.000000 0.000000 
							CHANNELS 3 Zrotation Yrotation Xrotation
							End Site
							{
								OFFSET 4.083176 0.000000 0.000000 
							}
						}
					}
				}
			}
			JOINT rCollar
			{
				OFFSET -3.470700 6.669187 -0.816635 
				CHANNELS 3 Yrotation Zrotation Xrotation
				JOINT rShldr
				{
					OFFSET -3.198488 0.000000 0.000000 
					CHANNELS 3 Zrotation Yrotation Xrotation
					JOINT rForeArm
					{
						OFFSET -10.139888 0.000000 0.000000 
						CHANNELS 3 Yrotation Zrotation Xrotation
						JOINT rHand
						{
							OFFSET -8.370511 0.000000 0.000000 
							CHANNELS 3 Zrotation Yrotation Xrotation
							End Site
							{
								OFFSET -4.083176 0.000000 0.000000 
							}
						}
					}
				}
			}
		}
	}
	JOINT lThigh
	{
		OFFSET 5.308129 -1.633274 1.361059 
		CHANNELS 3 Xrotation Zrotation Yrotation
		JOINT lShin
		{
			OFFSET -2.041588 -20.007561 0.000000 
			CHANNELS 3 Xrotation Zrotation Yrotation
			JOINT lFoot
			{
				OFFSET 0.000000 -19.190928 -1.224953 
				CHANNELS 3 Xrotation Yrotation Zrotation
				End Site
				{
					OFFSET 0.000000 -2.449906 4.627600 
				}
			}
		}
	}
	JOINT rThigh
	{
		OFFSET -5.308129 -1.633274 1.361059 
		CHANNELS 3 Xrotation Zrotation Yrotation
		JOINT rShin
		{
			OFFSET 2.041588 -20.007561 0.000000 
			CHANNELS 3 Xrotation Zrotation Yrotation
			JOINT rFoot
			{
				OFFSET 0.000000 -19.190928 -1.224953 
				CHANNELS 3 Xrotation Yrotation Zrotation
				End Site
				{
					OFFSET 0.000000 -2.449906 4.627600 
				}
			}
		}
	}
}
MOTION
Frames: 20
Frame Time: 0.033333
-52.089195 27.578234 -1.279059 -50.086834 -20.445942 -2.827596 0.000000 0.000000 0.000000 57.003895 6.835927 0.099287 42.196022 1.082332 -3.164604 -3.300632 -5.750646 -6.793118 -13.501189 -3.131523 24.998636 -51.460487 -69.252060 -1.710723 -55.410114 -7.669632 -7.198392 2.863086 7.726450 -3.442497 5.471966 7.246343 24.990015 -28.075287 52.026318 -29.033607 49.518574 4.241085 24.171839 6.203958 12.110642 -2.441645 -31.813665 19.831955 5.286394 66.316696 4.828172 9.640599 0.989880 0.036386 3.885926 -87.302986 -20.565865 -12.923891 135.217834 -8.954144 1.378608 3.945837 0.166114 3.273048 
-52.078495 27.581717 -1.280902 -49.989861 -20.407759 -2.775025 0.000000 0.000000 0.000000 56.961731 6.767579 -0.009698 41.998814 0.945839 -3.144909 -2.809953 -5.420613 -6.818425 -13.387731 -3.095234 24.992094 -51.351616 -69.362732 -1.710364 -55.401852 -7.676704 -6.875418 2.768869 7.652448 -3.459509 5.380565 7.279499 24.997242 -28.395832 52.005863 -29.508467 49.142181 4.337506 23.894053 6.282339 12.466664 -2.411170 -31.887510 19.965487 5.469883 66.271164 4.662863 9.477144 0.893934 0.053827 4.112285 -87.401001 -20.614758 -12.760970 135.248581 -8.944521 1.597914 3.858769 0.152777 3.259251 
-52.066875 27.577641 -1.256711 -50.007233 -20.281445 -2.740752 0.000000 0.000000 0.000000 57.012978 6.669897 -0.156327 41.941742 0.731291 -3.183832 -3.030819 -5.148266 -6.893489 -12.857334 -3.417879 24.990690 -50.144444 -69.625053 -2.242495 -55.476639 -7.789009 -6.781804 2.775698 8.005038 -3.447772 5.237025 7.287061 24.995275 -28.895399 51.795902 -29.761511 48.965549 4.430112 23.242165 5.607957 12.383221 -2.504874 -31.927858 20.259401 5.700863 66.499557 4.438680 8.994938 0.887729 0.017702 3.890763 -87.401115 -20.546595 -12.406683 135.284088 -8.905001 1.908510 3.827137 0.151646 3.269572 
-52.070259 27.588139 -1.259220 -50.051052 -20.302069 -2.666485 0.000000 0.000000 0.000000 57.070713 6.572238 -0.166042 42.062950 0.663050 -3.164190 -3.193214 -4.953442 -6.980151 -12.707915 -3.876322 24.997801 -48.505638 -69.497284 -3.038773 -55.835659 -7.899920 -6.838816 3.134634 8.166068 -3.438325 5.475885 7.677618 24.994747 -28.419878 51.139446 -29.170200 49.036350 4.472136 22.818573 4.876667 12.238389 -2.615114 -31.942852 20.478214 5.719869 66.551537 4.467656 8.634629 1.321012 0.031605 3.110393 -87.318230 -20.505098 -12.336689 135.286057 -8.856442 2.039087 3.849578 0.169297 3.295919 
-52.073032 27.608765 -1.281760 -50.337990 -20.463745 -2.274460 0.000000 0.000000 0.000000 57.375343 6.708984 0.020539 42.129230 0.838442 -3.310764 -3.380744 -5.089041 -6.990747 -13.528912 -3.349146 24.991095 -47.847588 -69.869202 -3.613697 -55.792133 -7.926363 -7.075477 3.471822 7.796278 -3.426484 5.614257 7.356754 24.995380 -28.077559 51.164085 -30.166073 48.298443 4.713717 21.906038 5.463289 12.483906 -2.524781 -31.752232 20.679243 5.763788 66.473305 4.496044 8.439094 1.372893 0.038649 3.268362 -86.755180 -20.702105 -12.611097 135.150146 -8.895610 2.050411 3.815123 0.175412 3.308767 
-52.026497 27.627829 -1.253516 -50.270355 -20.503582 -2.212746 0.000000 0.000000 0.000000 57.482922 6.650369 -0.146629 41.765938 0.799189 -3.613610 -2.924179 -5.246713 -6.757347 -13.814225 -2.972425 24.998716 -48.139290 -70.487808 -3.830523 -55.581390 -7.801808 -6.561490 3.590602 7.627660 -3.423089 5.701750 6.775343 24.992250 -28.854897 51.643147 -31.936943 47.012554 5.064114 21.863693 5.448521 12.414214 -2.526805 -31.863157 20.857822 5.876759 66.663788 4.389790 8.157589 1.024286 0.029401 3.289645 -86.615593 -20.817739 -12.669216 135.072052 -8.915109 2.063507 3.721743 0.153730 3.281840 
-52.009724 27.658073 -1.253664 -50.026718 -20.492748 -2.296175 0.000000 0.000000 0.000000 57.318447 6.484356 -0.136947 41.810303 0.838045 -3.750312 -3.275669 -5.150663 -6.668045 -13.960064 -2.892053 24.995008 -47.872391 -70.525467 -3.868096 -55.418026 -7.895356 -6.579134 3.467971 8.001674 -3.421918 5.966512 6.460733 24.997435 -28.090179 51.902611 -32.233009 46.750881 5.000225 22.774891 5.720228 11.977867 -2.508419 -31.975035 20.892614 5.950041 66.494019 4.301378 8.188202 1.073238 0.042978 3.543854 -86.644608 -20.915096 -13.305338 135.041000 -9.012635 0.928646 3.300363 0.139481 2.910120 
-51.986595 27.672144 -1.292481 -50.198494 -20.634712 -1.848169 0.000000 0.000000 0.000000 57.412540 6.621086 0.089556 42.008720 1.324306 -4.346797 -3.653788 -5.948584 -6.460867 -14.672262 -2.552492 24.995052 -47.930584 -70.490341 -3.853261 -55.547569 -7.940064 -6.530582 3.562943 8.184314 -3.416481 5.439507 6.898808 24.990728 -28.455280 51.590591 -31.994795 46.981590 4.859750 23.661285 5.565791 11.902144 -2.538727 -31.804087 20.681696 5.923458 65.998718 4.360771 8.606224 1.224811 0.059410 4.608914 -86.379570 -21.177944 -13.140224 135.030304 -8.973328 1.420055 3.327264 0.123810 2.997369 
-51.944294 27.681343 -1.249361 -50.178074 -20.714798 -1.650450 0.000000 0.000000 0.000000 57.588493 6.562315 0.433569 41.490013 1.955506 -4.973466 -2.692908 -6.962448 -6.120408 -16.100811 -0.449190 24.995897 -50.097614 -71.963875 -2.960026 -54.827911 -7.778219 -6.059797 3.557546 7.968623 -3.422104 4.462528 7.331357 24.991821 -29.902534 51.391872 -32.769665 47.314709 4.575675 24.623758 5.451294 11.828094 -2.558632 -32.050377 20.722433 5.816855 66.471062 4.418883 8.273463 0.491971 0.034475 4.225389 -86.304192 -21.384506 -13.609181 135.072128 -9.061834 0.437380 2.972637 0.108821 2.685738 
-51.923325 27.693800 -1.297802 -50.335964 -20.842852 -1.527039 0.000000 0.000000 0.000000 57.789185 6.503587 0.570504 41.477177 2.062214 -5.071394 -2.561364 -7.119093 -6.023509 -16.308733 -0.072033 24.991444 -49.406334 -72.441643 -3.671678 -54.627209 -7.780786 -4.617360 2.818961 8.223614 -3.449144 4.302414 7.374529 24.991493 -30.451914 51.510399 -32.997944 47.362198 4.501172 25.299089 5.306504 11.762392 -2.585211 -31.834507 20.731339 5.792341 66.084076 4.486984 8.481787 0.935617 0.060135 4.322250 -86.228935 -21.210482 -13.021555 134.896820 -8.983616 1.582370 3.748041 0.162134 3.201904 
-51.910297 27.682793 -1.246745 -50.391266 -20.745323 -1.514440 0.000000 0.000000 0.000000 57.414394 6.346872 0.904806 42.298958 2.584657 -5.738020 -4.384469 -8.230960 -5.714698 -16.961748 -1.095013 24.997900 -48.398708 -71.176575 -4.266737 -54.803802 -7.810542 -3.901162 2.269321 8.295108 -3.464023 3.910417 8.381569 24.993511 -29.315903 50.950096 -30.700850 48.213097 4.408751 25.974398 5.445105 11.963907 -2.546118 -31.919506 20.680248 5.743607 66.529976 4.486493 8.374703 0.566095 0.028200 3.784207 -86.170036 -21.141901 -13.247624 134.950562 -9.013620 0.973545 3.520365 0.127702 3.017244 
-51.909706 27.683620 -1.256587 -50.415947 -20.766552 -1.307585 0.000000 0.000000 0.000000 57.411880 6.385652 1.051472 42.312309 2.710647 -5.807200 -3.773050 -8.002563 -6.055768 -17.213575 -0.927376 24.994375 -48.539570 -71.283684 -4.215693 -54.729561 -7.806226 -3.879530 2.090471 8.470049 -3.480853 3.970962 8.110453 24.998468 -28.773050 51.099033 -30.402962 48.677704 4.383318 25.919147 5.874818 12.006048 -2.492766 -31.941963 20.604486 5.652187 66.384789 4.575047 8.304678 0.823704 0.042314 3.734085 -86.158852 -21.209589 -13.302287 134.974380 -9.012868 0.863152 3.403782 0.127966 2.946338 
-51.917362 27.697245 -1.264143 -50.336235 -20.699320 -1.149843 0.000000 0.000000 0.000000 57.394024 6.297891 0.993230 42.255882 2.805998 -6.159281 -3.499300 -8.295082 -5.981225 -17.313580 -0.386269 24.990948 -49.232517 -71.758179 -3.708555 -54.457211 -7.858342 -4.256613 2.528149 8.498214 -3.456061 4.212141 7.568529 24.993248 -28.147015 51.487701 -30.247219 49.310040 4.233587 26.162266 5.605312 12.265466 -2.510279 -31.996582 20.357357 5.485949 66.182198 4.605000 8.420415 1.091951 0.066109 3.801880 -86.168549 -21.209230 -13.465756 135.069901 -9.041875 0.463577 3.000497 0.108387 2.716335 
-51.919762 27.694107 -1.274968 -50.359512 -20.651405 -1.004687 0.000000 0.000000 0.000000 57.293941 6.219795 0.982452 42.433773 2.902334 -6.296786 -3.777651 -8.451677 -5.905380 -17.195992 -0.919179 24.996944 -48.603920 -71.346954 -4.106750 -54.530788 -7.856425 -3.768120 2.256310 8.783867 -3.460833 4.100459 7.902188 24.993280 -27.997124 51.213432 -29.453169 49.891083 4.170373 26.490711 5.213195 12.225999 -2.566698 -32.024971 20.268703 5.405081 66.117897 4.672275 8.385171 1.302021 0.052703 3.575849 -86.138199 -21.101524 -13.488075 135.093307 -9.052270 0.380136 2.697942 0.111486 2.534083 
-51.923260 27.716093 -1.235176 -50.470928 -20.642160 -0.908669 0.000000 0.000000 0.000000 57.278847 6.170883 1.032046 42.449860 2.796030 -6.208528 -3.449134 -8.148667 -6.028144 -16.961437 -1.256489 24.990433 -48.707592 -71.049202 -3.923781 -54.533417 -7.805869 -3.026253 1.401939 8.728837 -3.504843 4.093836 8.102518 24.991152 -27.922745 51.251602 -29.241993 49.633205 4.173306 27.308445 5.604142 12.822373 -2.477803 -31.999647 20.379105 5.443015 66.424522 4.681633 8.236481 0.999575 0.044210 3.045567 -86.038033 -20.963200 -13.375633 135.189804 -9.013087 0.368764 2.682924 0.099806 2.519759 
-51.923553 27.707466 -1.222479 -50.408306 -20.593548 -0.868666 0.000000 0.000000 0.000000 57.170341 6.053696 1.041742 42.402462 2.796185 -6.178790 -2.936836 -7.982272 -6.115142 -16.769075 -1.551791 24.990801 -48.595306 -70.953636 -3.696451 -54.554169 -7.937026 -3.933696 2.177406 8.641864 -3.471117 4.270407 8.185358 24.995024 -27.748682 51.168495 -29.011536 49.233173 4.360479 27.062769 5.710814 13.032966 -2.449999 -32.107391 20.291521 5.382129 66.534134 4.662671 8.253729 0.783733 0.029977 3.032116 -86.139511 -20.857800 -13.261627 135.227798 -9.003133 0.390140 2.510001 0.106273 2.461466 
-51.931873 27.709002 -1.238701 -50.455727 -20.603157 -0.899525 0.000000 0.000000 0.000000 57.187489 5.868162 1.050428 42.374107 2.612804 -5.953081 -2.225901 -7.523958 -6.246581 -16.458803 -1.635507 24.995943 -48.406727 -70.907265 -3.494612 -54.711414 -8.097256 -4.460197 2.987352 8.195156 -3.437425 4.437026 8.337650 24.992338 -27.240688 51.037735 -28.714758 49.245239 4.534704 26.119064 5.756294 12.732694 -2.463566 -32.005390 20.385883 5.458602 66.342255 4.604644 8.265089 1.105477 0.028041 2.996887 -86.149437 -20.614082 -13.215533 135.209854 -8.964242 0.540699 2.560021 0.108997 2.472342 
-51.917423 27.716314 -1.235936 -50.554203 -20.554743 -0.816085 0.000000 0.000000 0.000000 57.312637 5.770521 1.050427 42.280926 2.641707 -6.002301 -1.287067 -7.758515 -6.141457 -16.240496 -1.940335 24.999807 -47.411415 -70.830925 -4.217606 -54.690258 -8.080057 -4.094598 2.576962 8.207532 -3.455068 4.424319 8.642836 24.996023 -26.935335 50.664295 -28.618326 49.197800 4.596752 25.622850 5.081378 12.825125 -2.551675 -31.887123 20.355732 5.527715 66.356857 4.574177 8.100201 1.029580 0.021036 3.224052 -86.089088 -20.612915 -13.200296 135.100723 -8.954319 0.544265 2.920123 0.131567 2.621799 
-51.906887 27.725000 -1.235859 -50.544041 -20.496387 -0.763503 0.000000 0.000000 0.000000 57.363953 5.643500 1.099972 42.171543 2.669920 -6.188096 -0.290699 -7.748663 -6.151131 -16.254375 -2.140747 24.990623 -47.525993 -70.841896 -4.281794 -54.613152 -7.956833 -3.756954 2.071033 8.625255 -3.476583 4.143212 9.228109 24.990753 -27.092529 50.138580 -28.818357 48.657883 4.655760 24.994852 4.623650 12.723412 -2.622772 -31.857559 20.277382 5.597396 66.239449 4.505761 8.241305 0.904016 0.065033 3.491577 -85.945999 -20.663820 -13.254345 135.073242 -8.954552 0.486910 2.680962 0.113992 2.493723 
-51.879135 27.734865 -1.233371 -50.616920 -20.516420 -0.636637 0.000000 0.000000 0.000000 57.456097 5.662952 1.138847 42.209557 2.679629 -6.188095 0.459896 -7.473735 -6.364021 -16.015951 -2.325610 24.992861 -46.752457 -70.832733 -4.627579 -54.508759 -8.061392 -3.613821 1.646195 8.137399 -3.490800 4.017873 9.544702 24.994516 -26.791870 49.655140 -29.432051 48.192314 4.687303 24.671747 5.039795 12.686191 -2.564543 -31.766031 20.340662 5.752121 66.228439 4.359435 8.478876 0.649435 0.035585 3.879683 -85.827827 -20.838987 -13.187632 135.011292 -8.973573 0.597306 2.723627 0.096142 2.538797 
